<svg xmlns="http://www.w3.org/2000/svg" viewBox="0 0 1200 760" role="img" aria-labelledby="t d">
  <title id="t">泓冠系統主題橫幅</title>
  <desc id="d">以抽象幾何圖形呈現家居、健康與淨化服務概念。</desc>
  <defs>
    <linearGradient id="bg" x1="0" x2="1" y1="0" y2="1">
      <stop offset="0%" stop-color="#0f766e" />
      <stop offset="55%" stop-color="#155e75" />
      <stop offset="100%" stop-color="#f97316" />
    </linearGradient>
  </defs>
  <rect width="1200" height="760" fill="url(#bg)" rx="42"/>
  <g opacity="0.24" fill="#fff7ed">
    <circle cx="160" cy="160" r="110"/>
    <circle cx="1060" cy="120" r="92"/>
    <circle cx="1040" cy="620" r="132"/>
  </g>
  <g fill="#fef3c7" opacity="0.86">
    <rect x="120" y="250" width="210" height="210" rx="28"/>
    <rect x="360" y="220" width="260" height="260" rx="26"/>
    <rect x="660" y="185" width="210" height="210" rx="28"/>
  </g>
  <g fill="#ecfeff" opacity="0.9">
    <path d="M880 250c56-18 111 20 131 69 18 45 13 97-13 136-42 63-132 79-196 34-53-37-73-109-50-169 22-57 73-82 128-70z"/>
    <path d="M180 520h640c18 0 34 14 34 32s-16 32-34 32H180c-18 0-34-14-34-32s16-32 34-32z"/>
  </g>
</svg>
